<svg xmlns="http://www.w3.org/2000/svg" xmlns:xlink="http://www.w3.org/1999/xlink" xmlns:s="https://github.com/nturley/netlistsvg" width="590" height="380"><rect width="100%" height="100%" fill="white"/><style>svg {
  stroke:#000;
  fill:none;
}
text {
  fill:#000;
  stroke:none;
  font-size:10px;
  font-weight: bold;
  font-family: "Courier New", monospace;
}
line {
    stroke-linecap: round;
}
.nodelabel {
  text-anchor: middle;
}
.inputPortLabel {
  text-anchor: end;
}
.splitjoinBody {
  fill:#000;
}</style><g s:type="not" transform="translate(48,122.5)" s:width="30" s:height="20" id="cell_X5_X21"><s:alias val="$_NOT_"/><s:alias val="$not"/><s:alias val="$logic_not"/><path d="M0,0 L0,20 L20,10 Z" class="cell_X5_X21"/><circle cx="24" cy="10" r="3" class="cell_X5_X21"/><g s:x="-1" s:y="10" s:pid="A"/><g s:x="27" s:y="10" s:pid="Y"/></g><g s:type="not" transform="translate(194,122.5)" s:width="30" s:height="20" id="cell_X6_X7"><s:alias val="$_NOT_"/><s:alias val="$not"/><s:alias val="$logic_not"/><path d="M0,0 L0,20 L20,10 Z" class="cell_X6_X7"/><circle cx="24" cy="10" r="3" class="cell_X6_X7"/><g s:x="-1" s:y="10" s:pid="A"/><g s:x="27" s:y="10" s:pid="Y"/></g><g s:type="not" transform="translate(340,238)" s:width="30" s:height="20" id="cell_X9_X1"><s:alias val="$_NOT_"/><s:alias val="$not"/><s:alias val="$logic_not"/><path d="M0,0 L0,20 L20,10 Z" class="cell_X9_X1"/><circle cx="24" cy="10" r="3" class="cell_X9_X1"/><g s:x="-1" s:y="10" s:pid="A"/><g s:x="27" s:y="10" s:pid="Y"/></g><g s:type="not" transform="translate(406,195)" s:width="30" s:height="20" id="cell_X11_X23"><s:alias val="$_NOT_"/><s:alias val="$not"/><s:alias val="$logic_not"/><path d="M0,0 L0,20 L20,10 Z" class="cell_X11_X23"/><circle cx="24" cy="10" r="3" class="cell_X11_X23"/><g s:x="-1" s:y="10" s:pid="A"/><g s:x="27" s:y="10" s:pid="Y"/></g><g s:type="not" transform="translate(48,280.5)" s:width="30" s:height="20" id="cell_X19_X18"><s:alias val="$_NOT_"/><s:alias val="$not"/><s:alias val="$logic_not"/><path d="M0,0 L0,20 L20,10 Z" class="cell_X19_X18"/><circle cx="24" cy="10" r="3" class="cell_X19_X18"/><g s:x="-1" s:y="10" s:pid="A"/><g s:x="27" s:y="10" s:pid="Y"/></g><g s:type="not" transform="translate(194,258)" s:width="30" s:height="20" id="cell_X20_X16"><s:alias val="$_NOT_"/><s:alias val="$not"/><s:alias val="$logic_not"/><path d="M0,0 L0,20 L20,10 Z" class="cell_X20_X16"/><circle cx="24" cy="10" r="3" class="cell_X20_X16"/><g s:x="-1" s:y="10" s:pid="A"/><g s:x="27" s:y="10" s:pid="Y"/></g><g s:type="generic" transform="translate(266,237.5)" s:width="30" s:height="40" id="cell_X13_X3"><text x="15" y="-4" class="nodelabel cell_X13_X3" s:attribute="ref">TG</text><rect width="30" height="40" s:generic="body" class="cell_X13_X3"/><g transform="translate(0,10)" s:x="0" s:y="10" s:pid="in0" id="port_X13_X3~A"><text x="-3" y="-4" class="inputPortLabel cell_X13_X3">A</text></g><g transform="translate(0,30)" s:x="0" s:y="10" s:pid="in0" id="port_X13_X3~C"><text x="-3" y="-4" class="inputPortLabel cell_X13_X3">C</text></g><g transform="translate(30,10)" s:x="30" s:y="10" s:pid="out0" id="port_X13_X3~B"><text x="5" y="-4" style="fill:#000; stroke:none" class="cell_X13_X3">B</text></g></g><g s:type="generic" transform="translate(120,122)" s:width="30" s:height="40" id="cell_X17_X4"><text x="15" y="-4" class="nodelabel cell_X17_X4" s:attribute="ref">TG</text><rect width="30" height="40" s:generic="body" class="cell_X17_X4"/><g transform="translate(0,10)" s:x="0" s:y="10" s:pid="in0" id="port_X17_X4~A"><text x="-3" y="-4" class="inputPortLabel cell_X17_X4">A</text></g><g transform="translate(0,30)" s:x="0" s:y="10" s:pid="in0" id="port_X17_X4~C"><text x="-3" y="-4" class="inputPortLabel cell_X17_X4">C</text></g><g transform="translate(30,10)" s:x="30" s:y="10" s:pid="out0" id="port_X17_X4~B"><text x="5" y="-4" style="fill:#000; stroke:none" class="cell_X17_X4">B</text></g></g><g s:type="generic" transform="translate(484,122)" s:width="30" s:height="40" id="cell_X10_X2_X15_X14"><text x="15" y="-4" class="nodelabel cell_X10_X2_X15_X14" s:attribute="ref">tristate_buffer</text><rect width="30" height="40" s:generic="body" class="cell_X10_X2_X15_X14"/><g transform="translate(0,10)" s:x="0" s:y="10" s:pid="in0" id="port_X10_X2_X15_X14~A"><text x="-3" y="-4" class="inputPortLabel cell_X10_X2_X15_X14">A</text></g><g transform="translate(0,30)" s:x="0" s:y="10" s:pid="in0" id="port_X10_X2_X15_X14~En"><text x="-3" y="-4" class="inputPortLabel cell_X10_X2_X15_X14">En</text></g><g transform="translate(30,10)" s:x="30" s:y="10" s:pid="out0" id="port_X10_X2_X15_X14~Y"><text x="5" y="-4" style="fill:#000; stroke:none" class="cell_X10_X2_X15_X14">Y</text></g></g><g s:type="generic" transform="translate(484,260)" s:width="30" s:height="40" id="cell_X22_X0_X12_X8"><text x="15" y="-4" class="nodelabel cell_X22_X0_X12_X8" s:attribute="ref">tristate_buffer</text><rect width="30" height="40" s:generic="body" class="cell_X22_X0_X12_X8"/><g transform="translate(0,10)" s:x="0" s:y="10" s:pid="in0" id="port_X22_X0_X12_X8~A"><text x="-3" y="-4" class="inputPortLabel cell_X22_X0_X12_X8">A</text></g><g transform="translate(0,30)" s:x="0" s:y="10" s:pid="in0" id="port_X22_X0_X12_X8~En"><text x="-3" y="-4" class="inputPortLabel cell_X22_X0_X12_X8">En</text></g><g transform="translate(30,10)" s:x="30" s:y="10" s:pid="out0" id="port_X22_X0_X12_X8~Y"><text x="5" y="-4" style="fill:#000; stroke:none" class="cell_X22_X0_X12_X8">Y</text></g></g><g s:type="outputExt" transform="translate(484,348)" s:width="30" s:height="20" id="cell_CLK"><text x="15" y="-4" class="nodelabel cell_CLK" s:attribute="ref">CLK</text><s:alias val="$_outputExt_"/><path d="M30,0 L30,20 L15,20 L0,10 L15,0 Z" class="cell_CLK"/><g s:x="0" s:y="10" s:pid="A"/></g><g s:type="outputExt" transform="translate(484,72)" s:width="30" s:height="20" id="cell_D"><text x="15" y="-4" class="nodelabel cell_D" s:attribute="ref">D</text><s:alias val="$_outputExt_"/><path d="M30,0 L30,20 L15,20 L0,10 L15,0 Z" class="cell_D"/><g s:x="0" s:y="10" s:pid="A"/></g><g s:type="outputExt" transform="translate(12,22)" s:width="30" s:height="20" id="cell_VGND"><text x="15" y="-4" class="nodelabel cell_VGND" s:attribute="ref">VGND</text><s:alias val="$_outputExt_"/><path d="M30,0 L30,20 L15,20 L0,10 L15,0 Z" class="cell_VGND"/><g s:x="0" s:y="10" s:pid="A"/></g><g s:type="outputExt" transform="translate(62,22)" s:width="30" s:height="20" id="cell_VNB"><text x="15" y="-4" class="nodelabel cell_VNB" s:attribute="ref">VNB</text><s:alias val="$_outputExt_"/><path d="M30,0 L30,20 L15,20 L0,10 L15,0 Z" class="cell_VNB"/><g s:x="0" s:y="10" s:pid="A"/></g><g s:type="outputExt" transform="translate(112,22)" s:width="30" s:height="20" id="cell_VPB"><text x="15" y="-4" class="nodelabel cell_VPB" s:attribute="ref">VPB</text><s:alias val="$_outputExt_"/><path d="M30,0 L30,20 L15,20 L0,10 L15,0 Z" class="cell_VPB"/><g s:x="0" s:y="10" s:pid="A"/></g><g s:type="outputExt" transform="translate(162,22)" s:width="30" s:height="20" id="cell_VPWR"><text x="15" y="-4" class="nodelabel cell_VPWR" s:attribute="ref">VPWR</text><s:alias val="$_outputExt_"/><path d="M30,0 L30,20 L15,20 L0,10 L15,0 Z" class="cell_VPWR"/><g s:x="0" s:y="10" s:pid="A"/></g><g s:type="outputExt" transform="translate(484,195)" s:width="30" s:height="20" id="cell_Q"><text x="15" y="-4" class="nodelabel cell_Q" s:attribute="ref">Q</text><s:alias val="$_outputExt_"/><path d="M30,0 L30,20 L15,20 L0,10 L15,0 Z" class="cell_Q"/><g s:x="0" s:y="10" s:pid="A"/></g><line x1="22" x2="47" y1="132.5" y2="132.5" class="net_3 width_1" style="stroke-width: 1"/><line x1="22" x2="22" y1="132.5" y2="82" class="net_3 width_1" style="stroke-width: 1"/><line x1="22" x2="484" y1="82" y2="82" class="net_3 width_1" style="stroke-width: 1"/><line x1="151" x2="193" y1="132.5" y2="132.5" class="net_13 width_1" style="stroke-width: 1"/><line x1="515" x2="578" y1="132.5" y2="132.5" class="net_13 width_1" style="stroke-width: 1"/><line x1="578" x2="578" y1="132.5" y2="102" class="net_13 width_1" style="stroke-width: 1"/><line x1="578" x2="168" y1="102" y2="102" class="net_13 width_1" style="stroke-width: 1"/><line x1="168" x2="168" y1="102" y2="132.5" class="net_13 width_1" style="stroke-width: 1"/><circle cx="168" cy="132.5" r="2" style="fill:#000" class="net_13 width_1"/><line x1="168" x2="193" y1="132.5" y2="132.5" class="net_13 width_1" style="stroke-width: 1"/><line x1="297" x2="339" y1="248" y2="248" class="net_9 width_1" style="stroke-width: 1"/><line x1="515" x2="578" y1="270.5" y2="270.5" class="net_9 width_1" style="stroke-width: 1"/><line x1="578" x2="578" y1="270.5" y2="175" class="net_9 width_1" style="stroke-width: 1"/><line x1="578" x2="314" y1="175" y2="175" class="net_9 width_1" style="stroke-width: 1"/><line x1="314" x2="314" y1="175" y2="248" class="net_9 width_1" style="stroke-width: 1"/><circle cx="314" cy="248" r="2" style="fill:#000" class="net_9 width_1"/><line x1="314" x2="339" y1="248" y2="248" class="net_9 width_1" style="stroke-width: 1"/><line x1="367" x2="380" y1="248" y2="248" class="net_12 width_1" style="stroke-width: 1"/><line x1="380" x2="380" y1="248" y2="205" class="net_12 width_1" style="stroke-width: 1"/><circle cx="380" cy="248" r="2" style="fill:#000" class="net_12 width_1"/><line x1="380" x2="405" y1="205" y2="205" class="net_12 width_1" style="stroke-width: 1"/><line x1="367" x2="446" y1="248" y2="248" class="net_12 width_1" style="stroke-width: 1"/><line x1="446" x2="446" y1="248" y2="270.5" class="net_12 width_1" style="stroke-width: 1"/><line x1="446" x2="484" y1="270.5" y2="270.5" class="net_12 width_1" style="stroke-width: 1"/><line x1="22" x2="22" y1="358" y2="290.5" class="net_2 width_1" style="stroke-width: 1"/><line x1="22" x2="47" y1="290.5" y2="290.5" class="net_2 width_1" style="stroke-width: 1"/><line x1="22" x2="484" y1="358" y2="358" class="net_2 width_1" style="stroke-width: 1"/><line x1="75" x2="168" y1="290.5" y2="290.5" class="net_14 width_1" style="stroke-width: 1"/><line x1="168" x2="168" y1="290.5" y2="268" class="net_14 width_1" style="stroke-width: 1"/><circle cx="168" cy="290.5" r="2" style="fill:#000" class="net_14 width_1"/><line x1="168" x2="193" y1="268" y2="268" class="net_14 width_1" style="stroke-width: 1"/><line x1="75" x2="88" y1="290.5" y2="290.5" class="net_14 width_1" style="stroke-width: 1"/><line x1="88" x2="88" y1="290.5" y2="152.5" class="net_14 width_1" style="stroke-width: 1"/><circle cx="88" cy="290.5" r="2" style="fill:#000" class="net_14 width_1"/><line x1="88" x2="120" y1="152.5" y2="152.5" class="net_14 width_1" style="stroke-width: 1"/><line x1="75" x2="484" y1="290.5" y2="290.5" class="net_14 width_1" style="stroke-width: 1"/><line x1="221" x2="244" y1="132.5" y2="132.5" class="net_16 width_1" style="stroke-width: 1"/><line x1="244" x2="244" y1="132.5" y2="248" class="net_16 width_1" style="stroke-width: 1"/><circle cx="244" cy="132.5" r="2" style="fill:#000" class="net_16 width_1"/><line x1="244" x2="266" y1="248" y2="248" class="net_16 width_1" style="stroke-width: 1"/><line x1="221" x2="484" y1="132.5" y2="132.5" class="net_16 width_1" style="stroke-width: 1"/><line x1="221" x2="266" y1="268" y2="268" class="net_10 width_1" style="stroke-width: 1"/><line x1="221" x2="234" y1="268" y2="268" class="net_10 width_1" style="stroke-width: 1"/><line x1="234" x2="234" y1="268" y2="152.5" class="net_10 width_1" style="stroke-width: 1"/><circle cx="234" cy="268" r="2" style="fill:#000" class="net_10 width_1"/><line x1="234" x2="484" y1="152.5" y2="152.5" class="net_10 width_1" style="stroke-width: 1"/><line x1="75" x2="120" y1="132.5" y2="132.5" class="net_17 width_1" style="stroke-width: 1"/><line x1="433" x2="484" y1="205" y2="205" class="net_8 width_1" style="stroke-width: 1"/></svg>